<svg xmlns="http://www.w3.org/2000/svg" width="192" height="192" viewBox="0 0 192 192">
    <path d="M176.75 162.86a21.873 21.873 0 0 1-24.443 21.833c-11.108-1.317-19.128-11.444-19.128-22.743V31.787c0-11.3 8.02-21.426 19.152-22.743a21.853 21.853 0 0 1 24.42 21.833z" fill="#f9ab00"/>
    <circle cx="39.573" cy="163.075" r="21.786" fill="#e37400"/>
    <path d="M96.934 75.214c-11.97.312-21.211 10.87-21.211 22.935v58.63c0 15.896 6.99 25.52 17.237 27.603a21.848 21.848 0 0 0 26.334-21.475V97.144a21.856 21.856 0 0 0-22.36-21.93z" fill="#e37400"/>
</svg>
